<svg xmlns="http://www.w3.org/2000/svg" viewBox="0 0 720 320" role="img" aria-labelledby="ant-elements-title">
  <title id="ant-elements-title">ANT crawler individual SVG elements</title>
  <!--
    Source reference: ~/Downloads/ant.svg lines 1-18
    Verdict: CHANGE
    Simplification: Fresh reusable symbol library for animation. Import symbols
    by ID or copy individual groups into a scene-level SVG.
  -->
  <defs>
    <style>
      .shell { fill: #ffffff; stroke: #050505; stroke-width: 2.1; stroke-linejoin: round; }
      .fill { fill: #08243b; }
      .eye { fill: #18d877; }
      .shine { fill: #ffffff; }
      .limb { fill: none; stroke: #08243b; stroke-linecap: round; stroke-linejoin: round; stroke-width: 5.4; }
      .limb-shell { fill: none; stroke: #ffffff; stroke-linecap: round; stroke-linejoin: round; stroke-width: 10; }
      .tile { fill: #f5f7f4; stroke: #d7dfd9; stroke-width: 1; }
      .label { fill: #41505a; font-family: ui-sans-serif, system-ui, sans-serif; font-size: 11px; font-weight: 700; letter-spacing: 0.04em; }
    </style>

    <symbol id="ant-part-head" viewBox="7 44 58 52">
      <path class="shell" d="M37.2 46.5 C45.5 46.5 51 50.1 54 52.9 C60.9 59.9 60.9 71.2 54.2 79.4 C49.9 84.9 42.6 87.7 35.6 89.7 C31 91 23.7 92.5 18.5 92.4 C16.6 92.4 15.0 91.9 13.7 90.6 C11.4 88.1 10.5 82 10.5 78 C10.5 69 14.7 59.9 21.1 54.4 C21.6 53.6 23.9 52.6 24.3 51.5 C25.2 48 30.4 46.7 37.2 46.5 Z"/>
      <path class="fill" d="M37.2 46.5 C45.5 46.5 51 50.1 54 52.9 C60.9 59.9 60.9 71.2 54.2 79.4 C49.9 84.9 42.6 87.7 35.6 89.7 C31 91 23.7 92.5 18.5 92.4 C16.6 92.4 15.0 91.9 13.7 90.6 C11.4 88.1 10.5 82 10.5 78 C10.5 69 14.7 59.9 21.1 54.4 C21.6 53.6 23.9 52.6 24.3 51.5 C25.2 48 30.4 46.7 37.2 46.5 Z"/>
      <path class="eye" d="M30.5 63.6 C23.4 63.7 16.6 69.9 15.6 79.1 C15.6 83.9 16.5 85.0 19.4 84.5 C24.5 84.0 33.2 78.7 36.0 72.9 C38.9 66.4 36.1 63.6 30.5 63.6 Z"/>
      <path class="shine" d="M25.6 72.9 C24.5 75.4 22.0 76.9 20.4 75.9 C18.7 75.0 18.5 72.5 19.9 70.4 C21.2 68.4 23.6 67.2 25.1 68.2 C26.5 69.0 26.6 71.0 25.6 72.9 Z"/>
    </symbol>

    <symbol id="ant-part-thorax" viewBox="34 48 76 72">
      <path class="shell" d="M47 66 C63 51 91 54 104 72 C118 91 104 113 79 116 C55 119 39 103 39 83 C39 75 42 70 47 66 Z"/>
      <path class="fill" d="M52 69 C66 58 87 61 98 76 C108 91 97 106 78 109 C59 111 46 99 46 84 C46 77 48 73 52 69 Z"/>
    </symbol>

    <symbol id="ant-part-abdomen" viewBox="66 44 100 86">
      <path class="shell" d="M82 65 C98 48 133 51 151 72 C167 91 155 119 127 126 C101 132 75 116 72 93 C70 80 75 71 82 65 Z"/>
      <path class="fill" d="M86 68 C101 55 130 57 146 75 C158 90 149 112 125 118 C103 124 82 111 79 92 C77 81 80 73 86 68 Z"/>
    </symbol>

    <symbol id="ant-part-antenna-upper" viewBox="-8 8 36 62">
      <path class="limb-shell" d="M20 53 C9 38 2 25 -2 12"/>
      <path class="limb" d="M20 53 C9 38 2 25 -2 12"/>
    </symbol>

    <symbol id="ant-part-antenna-lower" viewBox="-20 34 44 34">
      <path class="limb-shell" d="M18 60 C5 50 -6 43 -16 39"/>
      <path class="limb" d="M18 60 C5 50 -6 43 -16 39"/>
    </symbol>

    <symbol id="ant-part-front-leg" viewBox="-22 76 76 68">
      <path class="limb-shell" d="M48 83 C38 96 29 109 20 121"/>
      <path class="limb" d="M48 83 C38 96 29 109 20 121"/>
      <path class="limb-shell" d="M20 121 C9 130 -1 136 -12 139"/>
      <path class="limb" d="M20 121 C9 130 -1 136 -12 139"/>
      <path class="limb-shell" d="M-12 139 L-20 136"/>
      <path class="limb" d="M-12 139 L-20 136"/>
    </symbol>

    <symbol id="ant-part-middle-leg" viewBox="18 84 64 72">
      <path class="limb-shell" d="M77 88 C71 105 64 121 56 136"/>
      <path class="limb" d="M77 88 C71 105 64 121 56 136"/>
      <path class="limb-shell" d="M56 136 C51 146 45 151 36 152"/>
      <path class="limb" d="M56 136 C51 146 45 151 36 152"/>
      <path class="limb-shell" d="M36 152 L24 152"/>
      <path class="limb" d="M36 152 L24 152"/>
    </symbol>

    <symbol id="ant-part-rear-leg" viewBox="96 86 84 64">
      <path class="limb-shell" d="M101 91 C116 102 128 114 139 128"/>
      <path class="limb" d="M101 91 C116 102 128 114 139 128"/>
      <path class="limb-shell" d="M139 128 C149 139 158 144 168 146"/>
      <path class="limb" d="M139 128 C149 139 158 144 168 146"/>
      <path class="limb-shell" d="M168 146 L176 139"/>
      <path class="limb" d="M168 146 L176 139"/>
    </symbol>
  </defs>

  <g id="element-contact-sheet">
    <rect class="tile" x="16" y="16" width="156" height="132" rx="8"/>
    <use href="#ant-part-head" x="24" y="25" width="140" height="96"/>
    <text class="label" x="24" y="134">HEAD + EYE</text>

    <rect class="tile" x="188" y="16" width="156" height="132" rx="8"/>
    <use href="#ant-part-thorax" x="198" y="28" width="136" height="92"/>
    <text class="label" x="198" y="134">THORAX</text>

    <rect class="tile" x="360" y="16" width="188" height="132" rx="8"/>
    <use href="#ant-part-abdomen" x="370" y="26" width="168" height="96"/>
    <text class="label" x="370" y="134">ABDOMEN</text>

    <rect class="tile" x="564" y="16" width="140" height="132" rx="8"/>
    <use href="#ant-part-antenna-upper" x="584" y="24" width="58" height="78"/>
    <use href="#ant-part-antenna-lower" x="636" y="40" width="76" height="58"/>
    <text class="label" x="584" y="134">ANTENNAE</text>

    <rect class="tile" x="16" y="172" width="204" height="132" rx="8"/>
    <use href="#ant-part-front-leg" x="26" y="184" width="184" height="82"/>
    <text class="label" x="26" y="288">FRONT LEG</text>

    <rect class="tile" x="236" y="172" width="204" height="132" rx="8"/>
    <use href="#ant-part-middle-leg" x="246" y="182" width="184" height="92"/>
    <text class="label" x="246" y="288">MIDDLE LEG</text>

    <rect class="tile" x="456" y="172" width="248" height="132" rx="8"/>
    <use href="#ant-part-rear-leg" x="466" y="184" width="228" height="82"/>
    <text class="label" x="466" y="288">REAR LEG</text>
  </g>
</svg>
