<svg xmlns="http://www.w3.org/2000/svg" viewBox="-34 2 226 154" class="ant-crawler-rig" role="img" aria-labelledby="ant-crawler-title ant-crawler-desc">
  <title id="ant-crawler-title">ANT premium crawler rig</title>
  <desc id="ant-crawler-desc">A premium ANT ant SVG rig with independently animatable antennae, body masses, sockets, and six segmented legs.</desc>
  <!--
    Source reference: /Users/jamesking/Downloads/ant.svg lines 1-18
    Verdict: CHANGE
    Simplification: Rebuilt as premium animation-ready geometry. The supplied
    SVG sets the character: asymmetric head, dark body, white rim, black line,
    green eye, and low crawling stance. This rig keeps those cues while exposing
    body, antennae, sockets, and leg segments as independent animation targets.
  -->
  <style>
    .ant-crawler-rig {
      --ink: #08253d;
      --ink-deep: #031524;
      --ink-far: #526c80;
      --shell: #ffffff;
      --outline: #050505;
      --eye: #1cd372;
      --eye-hot: #40f497;
      --speed: 720ms;
      background: transparent;
    }

    .part,
    .segment {
      transform-box: view-box;
      transform-origin: center;
    }

    .rim {
      fill: var(--shell);
      stroke: var(--outline);
      stroke-width: 2.15;
      stroke-linecap: round;
      stroke-linejoin: round;
    }

    .body-fill {
      fill: url(#body-gradient);
    }

    .head-fill {
      fill: url(#head-gradient);
    }

    .body-gloss {
      fill: none;
      stroke: rgba(255, 255, 255, 0.26);
      stroke-width: 3.2;
      stroke-linecap: round;
    }

    .socket {
      fill: #12334f;
      stroke: rgba(255, 255, 255, 0.78);
      stroke-width: 0.85;
      opacity: 0.8;
    }

    .limb-shell,
    .antenna-shell {
      fill: none;
      stroke: var(--shell);
      stroke-width: 10;
      stroke-linecap: round;
      stroke-linejoin: round;
    }

    .limb-core,
    .antenna-core {
      fill: none;
      stroke: var(--ink);
      stroke-width: 5.4;
      stroke-linecap: round;
      stroke-linejoin: round;
    }

    .far .limb-core {
      stroke: var(--ink-far);
      opacity: 0.86;
    }

    .eye {
      fill: url(#eye-gradient);
    }

    .shine {
      fill: var(--shell);
    }

    .ant-crawler-rig.is-crawling #body-rig {
      animation: body-crawl-bob var(--speed) ease-in-out infinite alternate;
    }

    .ant-crawler-rig.is-crawling #head {
      animation: head-feel 1440ms ease-in-out infinite alternate;
    }

    .ant-crawler-rig.is-crawling .antenna {
      animation: antenna-feel 960ms ease-in-out infinite alternate;
    }

    .ant-crawler-rig.is-crawling .phase-a.upper {
      animation: upper-a var(--speed) cubic-bezier(.4, 0, .28, 1) infinite alternate;
    }

    .ant-crawler-rig.is-crawling .phase-a.lower {
      animation: lower-a var(--speed) cubic-bezier(.4, 0, .28, 1) infinite alternate;
    }

    .ant-crawler-rig.is-crawling .phase-a.foot {
      animation: foot-a var(--speed) cubic-bezier(.4, 0, .28, 1) infinite alternate;
    }

    .ant-crawler-rig.is-crawling .phase-b.upper {
      animation: upper-b var(--speed) cubic-bezier(.4, 0, .28, 1) infinite alternate;
    }

    .ant-crawler-rig.is-crawling .phase-b.lower {
      animation: lower-b var(--speed) cubic-bezier(.4, 0, .28, 1) infinite alternate;
    }

    .ant-crawler-rig.is-crawling .phase-b.foot {
      animation: foot-b var(--speed) cubic-bezier(.4, 0, .28, 1) infinite alternate;
    }

    @keyframes body-crawl-bob {
      from { transform: translateY(0); }
      to { transform: translateY(-1.8px); }
    }

    @keyframes head-feel {
      from { transform: rotate(-1deg) translateY(0.4px); }
      to { transform: rotate(1.8deg) translateY(-0.8px); }
    }

    @keyframes antenna-feel {
      from { transform: rotate(-4deg); }
      to { transform: rotate(5deg); }
    }

    @keyframes upper-a {
      from { transform: rotate(-7deg); }
      to { transform: rotate(10deg); }
    }

    @keyframes lower-a {
      from { transform: rotate(10deg); }
      to { transform: rotate(-11deg); }
    }

    @keyframes foot-a {
      from { transform: rotate(-4deg) translateX(-1px); }
      to { transform: rotate(8deg) translateX(2px); }
    }

    @keyframes upper-b {
      from { transform: rotate(10deg); }
      to { transform: rotate(-7deg); }
    }

    @keyframes lower-b {
      from { transform: rotate(-11deg); }
      to { transform: rotate(10deg); }
    }

    @keyframes foot-b {
      from { transform: rotate(8deg) translateX(2px); }
      to { transform: rotate(-4deg) translateX(-1px); }
    }

    @media (prefers-reduced-motion: reduce) {
      .ant-crawler-rig.is-crawling .part,
      .ant-crawler-rig.is-crawling .segment {
        animation: none;
      }
    }
  </style>

  <defs>
    <linearGradient id="body-gradient" x1="11" x2="153" y1="48" y2="125" gradientUnits="userSpaceOnUse">
      <stop offset="0" stop-color="#0d3556"/>
      <stop offset="0.5" stop-color="#08253d"/>
      <stop offset="1" stop-color="#021222"/>
    </linearGradient>
    <linearGradient id="head-gradient" x1="12" x2="62" y1="56" y2="94" gradientUnits="userSpaceOnUse">
      <stop offset="0" stop-color="#0b304f"/>
      <stop offset="1" stop-color="#031524"/>
    </linearGradient>
    <radialGradient id="eye-gradient" cx="0" cy="0" r="1" gradientTransform="translate(26 73) rotate(35) scale(18 25)" gradientUnits="userSpaceOnUse">
      <stop offset="0" stop-color="var(--eye-hot)"/>
      <stop offset="0.74" stop-color="var(--eye)"/>
      <stop offset="1" stop-color="#0fb65f"/>
    </radialGradient>
    <filter id="soft-shadow" x="-30%" y="-30%" width="170%" height="180%">
      <feDropShadow dx="0" dy="7" stdDeviation="4" flood-color="#00121f" flood-opacity="0.2"/>
    </filter>
  </defs>

  <g id="legs-far" class="part far" data-layer="behind-body">
    <g id="front-far-leg" data-phase="b">
      <g id="front-far-upper" class="segment upper phase-b" style="transform-origin: 48px 66px" data-joint="48 66">
        <path class="limb-shell" d="M48 66 C36 54 27 45 15 37"/>
        <path class="limb-core" d="M48 66 C36 54 27 45 15 37"/>
      </g>
      <g id="front-far-lower" class="segment lower phase-b" style="transform-origin: 15px 37px" data-joint="15 37">
        <path class="limb-shell" d="M15 37 C5 32 -5 31 -15 34"/>
        <path class="limb-core" d="M15 37 C5 32 -5 31 -15 34"/>
      </g>
      <g id="front-far-foot" class="segment foot phase-b" style="transform-origin: -15px 34px" data-joint="-15 34">
        <path class="limb-shell" d="M-15 34 L-23 38"/>
        <path class="limb-core" d="M-15 34 L-23 38"/>
      </g>
    </g>

    <g id="middle-far-leg" data-phase="a">
      <g id="middle-far-upper" class="segment upper phase-a" style="transform-origin: 76px 66px" data-joint="76 66">
        <path class="limb-shell" d="M76 66 C75 51 79 39 87 28"/>
        <path class="limb-core" d="M76 66 C75 51 79 39 87 28"/>
      </g>
      <g id="middle-far-lower" class="segment lower phase-a" style="transform-origin: 87px 28px" data-joint="87 28">
        <path class="limb-shell" d="M87 28 C96 18 106 13 119 13"/>
        <path class="limb-core" d="M87 28 C96 18 106 13 119 13"/>
      </g>
      <g id="middle-far-foot" class="segment foot phase-a" style="transform-origin: 119px 13px" data-joint="119 13">
        <path class="limb-shell" d="M119 13 L131 13"/>
        <path class="limb-core" d="M119 13 L131 13"/>
      </g>
    </g>

    <g id="rear-far-leg" data-phase="b">
      <g id="rear-far-upper" class="segment upper phase-b" style="transform-origin: 107px 73px" data-joint="107 73">
        <path class="limb-shell" d="M107 73 C123 63 138 59 154 62"/>
        <path class="limb-core" d="M107 73 C123 63 138 59 154 62"/>
      </g>
      <g id="rear-far-lower" class="segment lower phase-b" style="transform-origin: 154px 62px" data-joint="154 62">
        <path class="limb-shell" d="M154 62 C162 65 167 71 169 80"/>
        <path class="limb-core" d="M154 62 C162 65 167 71 169 80"/>
      </g>
      <g id="rear-far-foot" class="segment foot phase-b" style="transform-origin: 169px 80px" data-joint="169 80">
        <path class="limb-shell" d="M169 80 L174 88"/>
        <path class="limb-core" d="M169 80 L174 88"/>
      </g>
    </g>
  </g>

  <g id="body-rig" class="part" filter="url(#soft-shadow)">
    <g id="body-union" class="part" data-pivot="82 82">
      <path class="body-fill" opacity="0.94" d="M24 51 C34 43 48 44 58 52 C66 58 73 59 86 56 C105 51 130 55 148 70 C165 84 167 106 151 120 C134 136 101 132 82 114 C75 108 70 106 60 111 C41 119 19 113 9 96 C-1 79 6 62 24 51 Z"/>
    </g>

    <g id="abdomen-plate" class="part" data-pivot="122 89">
      <path class="rim" d="M88 67 C106 54 137 58 151 77 C165 96 153 121 128 127 C105 132 84 119 80 99 C77 84 80 74 88 67 Z"/>
      <path class="body-fill" d="M92 70 C109 60 134 63 146 80 C157 95 148 114 126 119 C106 124 88 113 85 98 C83 86 85 76 92 70 Z"/>
      <path class="body-gloss" d="M101 65 C118 62 136 67 146 80"/>
    </g>

    <g id="thorax-plate" class="part" data-pivot="70 82">
      <path class="rim" d="M45 65 C60 52 86 55 100 72 C113 88 104 109 81 115 C59 120 41 107 39 88 C37 77 39 70 45 65 Z"/>
      <path class="body-fill" d="M50 69 C63 59 84 62 95 76 C105 89 97 103 79 108 C61 112 47 102 46 88 C45 79 46 73 50 69 Z"/>
      <path class="body-gloss" d="M55 65 C69 60 87 64 97 76"/>
    </g>

    <g id="head" class="part" style="transform-origin: 33px 75px" data-pivot="33 75">
      <path class="rim" d="M37.2 46.5 C45.5 46.5 51 50.1 54 52.9 C60.9 59.9 60.9 71.2 54.2 79.4 C49.9 84.9 42.6 87.7 35.6 89.7 C31 91 23.7 92.5 18.5 92.4 C16.6 92.4 15 91.9 13.7 90.6 C11.4 88.1 10.5 82 10.5 78 C10.5 69 14.7 59.9 21.1 54.4 C21.6 53.6 23.9 52.6 24.3 51.5 C25.2 48 30.4 46.7 37.2 46.5 Z"/>
      <path class="head-fill" d="M37.2 46.5 C45.5 46.5 51 50.1 54 52.9 C60.9 59.9 60.9 71.2 54.2 79.4 C49.9 84.9 42.6 87.7 35.6 89.7 C31 91 23.7 92.5 18.5 92.4 C16.6 92.4 15 91.9 13.7 90.6 C11.4 88.1 10.5 82 10.5 78 C10.5 69 14.7 59.9 21.1 54.4 C21.6 53.6 23.9 52.6 24.3 51.5 C25.2 48 30.4 46.7 37.2 46.5 Z"/>
      <path class="body-gloss" d="M15 86 C13 77 16 65 22 56"/>
      <path class="eye" d="M30.5 63.6 C23.4 63.7 16.6 69.9 15.6 79.1 C15.6 83.9 16.5 85 19.4 84.5 C24.5 84 33.2 78.7 36 72.9 C38.9 66.4 36.1 63.6 30.5 63.6 Z"/>
      <path class="shine" d="M25.6 72.9 C24.5 75.4 22 76.9 20.4 75.9 C18.7 75 18.5 72.5 19.9 70.4 C21.2 68.4 23.7 67.2 25.1 68.2 C26.5 69 26.6 71 25.6 72.9 Z"/>
      <circle class="shine" cx="28.8" cy="66.3" r="1.1" opacity="0.7"/>
    </g>

    <g id="sockets" class="part" aria-hidden="true">
      <ellipse class="socket" cx="48" cy="84" rx="7" ry="4.8" transform="rotate(-45 48 84)"/>
      <ellipse class="socket" cx="76" cy="88" rx="6.8" ry="4.6" transform="rotate(-64 76 88)"/>
      <ellipse class="socket" cx="101" cy="91" rx="7.4" ry="4.8" transform="rotate(37 101 91)"/>
      <ellipse class="socket" cx="48" cy="66" rx="5.8" ry="3.8" transform="rotate(38 48 66)" opacity="0.78"/>
      <ellipse class="socket" cx="76" cy="66" rx="5.8" ry="3.8" transform="rotate(-70 76 66)" opacity="0.78"/>
      <ellipse class="socket" cx="107" cy="73" rx="6.4" ry="3.8" transform="rotate(-17 107 73)" opacity="0.78"/>
    </g>
  </g>

  <g id="antennae" class="part">
    <g id="upper-antenna" class="segment antenna" style="transform-origin: 21px 54px" data-joint="21 54">
      <path class="antenna-shell" d="M21 54 C10 40 2 26 -4 12"/>
      <path class="antenna-core" d="M21 54 C10 40 2 26 -4 12"/>
    </g>
    <g id="lower-antenna" class="segment antenna" style="transform-origin: 20px 59px" data-joint="20 59">
      <path class="antenna-shell" d="M20 59 C7 50 -6 43 -18 39"/>
      <path class="antenna-core" d="M20 59 C7 50 -6 43 -18 39"/>
    </g>
  </g>

  <g id="legs-near" class="part near" data-layer="above-body">
    <g id="front-near-leg" data-phase="a">
      <g id="front-near-upper" class="segment upper phase-a" style="transform-origin: 48px 84px" data-joint="48 84">
        <path class="limb-shell" d="M48 84 C38 97 29 110 20 122"/>
        <path class="limb-core" d="M48 84 C38 97 29 110 20 122"/>
      </g>
      <g id="front-near-lower" class="segment lower phase-a" style="transform-origin: 20px 122px" data-joint="20 122">
        <path class="limb-shell" d="M20 122 C9 131 -2 137 -15 140"/>
        <path class="limb-core" d="M20 122 C9 131 -2 137 -15 140"/>
      </g>
      <g id="front-near-foot" class="segment foot phase-a" style="transform-origin: -15px 140px" data-joint="-15 140">
        <path class="limb-shell" d="M-15 140 L-25 136"/>
        <path class="limb-core" d="M-15 140 L-25 136"/>
      </g>
    </g>

    <g id="middle-near-leg" data-phase="b">
      <g id="middle-near-upper" class="segment upper phase-b" style="transform-origin: 76px 88px" data-joint="76 88">
        <path class="limb-shell" d="M76 88 C70 106 63 122 55 137"/>
        <path class="limb-core" d="M76 88 C70 106 63 122 55 137"/>
      </g>
      <g id="middle-near-lower" class="segment lower phase-b" style="transform-origin: 55px 137px" data-joint="55 137">
        <path class="limb-shell" d="M55 137 C49 147 42 152 32 152"/>
        <path class="limb-core" d="M55 137 C49 147 42 152 32 152"/>
      </g>
      <g id="middle-near-foot" class="segment foot phase-b" style="transform-origin: 32px 152px" data-joint="32 152">
        <path class="limb-shell" d="M32 152 L19 152"/>
        <path class="limb-core" d="M32 152 L19 152"/>
      </g>
    </g>

    <g id="rear-near-leg" data-phase="a">
      <g id="rear-near-upper" class="segment upper phase-a" style="transform-origin: 101px 91px" data-joint="101 91">
        <path class="limb-shell" d="M101 91 C116 102 128 115 140 130"/>
        <path class="limb-core" d="M101 91 C116 102 128 115 140 130"/>
      </g>
      <g id="rear-near-lower" class="segment lower phase-a" style="transform-origin: 140px 130px" data-joint="140 130">
        <path class="limb-shell" d="M140 130 C150 140 160 145 171 146"/>
        <path class="limb-core" d="M140 130 C150 140 160 145 171 146"/>
      </g>
      <g id="rear-near-foot" class="segment foot phase-a" style="transform-origin: 171px 146px" data-joint="171 146">
        <path class="limb-shell" d="M171 146 L180 139"/>
        <path class="limb-core" d="M171 146 L180 139"/>
      </g>
    </g>
  </g>
</svg>
