<svg xmlns="http://www.w3.org/2000/svg" viewBox="66 44 100 86" role="img" aria-labelledby="abdomen-title">
  <title id="abdomen-title">ANT crawler abdomen element</title>
  <style>
    .shell { fill: #ffffff; stroke: #050505; stroke-width: 2.1; stroke-linejoin: round; }
    .fill { fill: #08243b; }
    .highlight { fill: none; stroke: rgba(255,255,255,0.28); stroke-linecap: round; stroke-width: 3.2; }
  </style>
  <path class="shell" d="M82 65 C98 48 133 51 151 72 C167 91 155 119 127 126 C101 132 75 116 72 93 C70 80 75 71 82 65 Z"/>
  <path class="fill" d="M86 68 C101 55 130 57 146 75 C158 90 149 112 125 118 C103 124 82 111 79 92 C77 81 80 73 86 68 Z"/>
  <path class="highlight" d="M95 61 C113 56 134 61 146 76"/>
</svg>
