<svg xmlns="http://www.w3.org/2000/svg" viewBox="7 44 58 52" role="img" aria-labelledby="head-title">
  <title id="head-title">ANT crawler head element</title>
  <style>
    .shell { fill: #ffffff; stroke: #050505; stroke-width: 2.1; stroke-linejoin: round; }
    .fill { fill: #08243b; }
    .eye { fill: #18d877; }
    .shine { fill: #ffffff; }
  </style>
  <path class="shell" d="M37.2 46.5 C45.5 46.5 51 50.1 54 52.9 C60.9 59.9 60.9 71.2 54.2 79.4 C49.9 84.9 42.6 87.7 35.6 89.7 C31 91 23.7 92.5 18.5 92.4 C16.6 92.4 15.0 91.9 13.7 90.6 C11.4 88.1 10.5 82 10.5 78 C10.5 69 14.7 59.9 21.1 54.4 C21.6 53.6 23.9 52.6 24.3 51.5 C25.2 48 30.4 46.7 37.2 46.5 Z"/>
  <path class="fill" d="M37.2 46.5 C45.5 46.5 51 50.1 54 52.9 C60.9 59.9 60.9 71.2 54.2 79.4 C49.9 84.9 42.6 87.7 35.6 89.7 C31 91 23.7 92.5 18.5 92.4 C16.6 92.4 15.0 91.9 13.7 90.6 C11.4 88.1 10.5 82 10.5 78 C10.5 69 14.7 59.9 21.1 54.4 C21.6 53.6 23.9 52.6 24.3 51.5 C25.2 48 30.4 46.7 37.2 46.5 Z"/>
  <path class="eye" d="M30.5 63.6 C23.4 63.7 16.6 69.9 15.6 79.1 C15.6 83.9 16.5 85.0 19.4 84.5 C24.5 84.0 33.2 78.7 36.0 72.9 C38.9 66.4 36.1 63.6 30.5 63.6 Z"/>
  <path class="shine" d="M25.6 72.9 C24.5 75.4 22.0 76.9 20.4 75.9 C18.7 75.0 18.5 72.5 19.9 70.4 C21.2 68.4 23.6 67.2 25.1 68.2 C26.5 69.0 26.6 71.0 25.6 72.9 Z"/>
  <circle class="shine" cx="28.6" cy="66.4" r="1.1" opacity="0.68"/>
</svg>
