<svg xmlns="http://www.w3.org/2000/svg" viewBox="34 48 76 72" role="img" aria-labelledby="thorax-title">
  <title id="thorax-title">ANT crawler thorax element</title>
  <style>
    .shell { fill: #ffffff; stroke: #050505; stroke-width: 2.1; stroke-linejoin: round; }
    .fill { fill: #08243b; }
    .highlight { fill: none; stroke: rgba(255,255,255,0.28); stroke-linecap: round; stroke-width: 3.2; }
  </style>
  <path class="shell" d="M47 66 C63 51 91 54 104 72 C118 91 104 113 79 116 C55 119 39 103 39 83 C39 75 42 70 47 66 Z"/>
  <path class="fill" d="M52 69 C66 58 87 61 98 76 C108 91 97 106 78 109 C59 111 46 99 46 84 C46 77 48 73 52 69 Z"/>
  <path class="highlight" d="M55 64 C70 59 89 63 99 75"/>
</svg>
